<svg width="268.8" height="91.801" viewBox="0 0 268.8 91.801" xmlns="http://www.w3.org/2000/svg"><g id="svgGroup" stroke-linecap="round" fill-rule="evenodd" font-size="9pt" stroke="#5da8a3" stroke-width="0.25mm" fill="#e86868" style="stroke:#5da8a3;stroke-width:0.25mm;fill:#e86868"><path d="M 85.6 45.8 L 87.7 37.1 Q 85.4 38.2 80.8 40.95 Q 76.2 43.7 69.1 48 Q 60.3 53.5 56 53.5 Q 54.8 53.5 54.8 52.7 Q 54.8 52.2 55.4 51.2 Q 56.2 50.1 57.2 48.65 Q 58.2 47.2 59.3 45.6 Q 60.4 43.9 61.7 42.05 Q 63 40.2 64.5 38.1 Q 65 37.4 65 36.6 L 65 35.5 Q 65 34.7 65.2 34.5 Q 66 33.6 69.3 32.4 Q 72.6 31.2 74.3 31.2 Q 75.1 31.2 75.1 31.6 Q 75.1 31.7 75.05 31.8 L 74.9 32.1 Q 72.7 34.2 67.7 39.3 Q 66.9 40.1 65.85 41.6 L 63.4 45.1 Q 62.2 46.9 62.2 47.6 Q 62.2 48.1 62.9 48.1 Q 64.9 48.1 75.6 41.9 Q 79.4 39.7 82.5 37.7 Q 85.6 35.7 88.2 34 L 88.7 31.9 Q 89.2 30.2 92.1 29.2 Q 93.2 28.8 94.4 28.8 Q 95.9 28.8 95.9 29.9 Q 95.9 31.2 93.6 33.8 Q 93.5 34.2 93.4 34.65 Q 93.3 35.1 93.1 35.6 L 92.3 38.5 L 91 43.5 Q 97.2 41.1 99.5 41.1 Q 101.1 41.1 101.1 41.7 Q 101.1 42.1 100 42.4 Q 99.4 42.6 98.3 43 Q 97.2 43.4 95.6 44 Q 90.6 45.8 89.4 49.7 Q 88 54.3 86.25 58.65 Q 84.5 63 82.4 67.1 Q 69.8 91.8 49.7 91.8 Q 44.4 91.8 40.5 89.05 Q 36.6 86.3 36.6 82 Q 36.6 79 38.6 75.8 Q 39.4 74.6 42.05 72.3 Q 44.7 70 49.2 66.6 Q 53.7 63.2 57.85 60.45 Q 62 57.7 66 55.4 Q 70.3 52.9 75.2 50.5 Q 80.1 48.1 85.6 45.8 Z M 247.7 56.6 L 259.2 36.7 Q 259.8 35.6 259.8 35.2 Q 259.8 34.8 259.4 34.8 Q 257.6 34.8 250 41.2 Q 242.9 47.1 241.2 49.3 Q 240.8 50 239.1 51.05 Q 237.4 52.1 236.4 52.1 Q 235.6 52.1 235.6 51.1 Q 235.6 50.6 235.75 50.15 Q 235.9 49.7 236 49.3 L 237.6 45.3 Q 238.2 43.8 239.05 41.75 Q 239.9 39.7 241 37.2 Q 241.3 36.4 241.3 35.9 Q 241.3 35.1 240.6 35.1 Q 238.2 35.1 229.6 42 Q 221.6 48.4 220 50.8 Q 219.6 51.4 217.2 53.3 Q 215 55.2 214.2 55.2 L 214 55.2 Q 213.2 55.2 213.2 54.3 Q 213.2 53.1 214.1 51.8 Q 214.5 51.1 215.15 50.1 Q 215.8 49.1 216.8 47.8 Q 218.8 45.1 221.6 40.9 Q 223.6 38.1 225.05 35.85 Q 226.5 33.6 227.3 31.7 Q 227.9 30.4 234 28.5 Q 234.5 28.2 234.6 28.2 Q 235.1 28.2 234.7 29.2 Q 234.3 30.1 233.2 30.9 Q 228.9 36.3 226.6 39.3 Q 224.1 42.4 223.7 43.1 L 242.3 30.5 Q 243.7 29.7 244.4 29.7 Q 246.6 29.7 246.6 32.7 Q 246.6 33.6 246.3 34.5 L 243.5 43.2 L 253.8 35.1 Q 258.3 31.6 261.5 30 Q 264.7 28.4 266.5 28.4 Q 268.5 28.4 268.8 30.5 Q 268.6 31 267.55 32.6 Q 266.5 34.2 264.7 36.8 Q 262.9 39.5 260.35 43.35 Q 257.8 47.2 254.5 52.2 Q 254.4 52.3 254.4 52.7 Q 254.4 53.3 255 53.5 Q 255.3 53.6 256 53.4 Q 257.5 52.9 259.15 52.1 Q 260.8 51.3 262.5 50.4 L 268.2 47.4 Q 268.2 48 267.7 49.7 Q 264.9 51.3 260.75 53.4 Q 256.6 55.5 250.9 58.3 Q 250.8 58.4 250.5 58.4 Q 249.9 58.4 248.7 57.75 Q 247.5 57.1 247.7 56.6 Z M 136.2 56.2 Q 134.9 56.5 132.9 55.1 Q 130.6 53.4 130.3 50.7 Q 132.3 44.8 140.6 33.1 Q 148.9 21.4 163.4 3.8 Q 163.8 3.1 167.9 1.6 Q 171.7 0 173.1 0 Q 174.5 0 174.5 1 Q 174.5 1.9 172.9 1.9 Q 171.2 1.9 166.6 6.5 Q 161 11.9 149 27.7 Q 135.2 45.8 135.2 50.3 Q 135.2 51.3 135.7 52.4 Q 136.2 53.5 137.3 53.5 Q 137.9 53.5 139.65 52.8 Q 141.4 52.1 143.5 51.1 Q 145.6 50.1 147.5 49.05 Q 149.4 48 150.3 47.4 Q 150.3 49.4 149.8 49.7 Q 149 50.1 148.25 50.5 Q 147.5 50.9 146.7 51.4 Q 146 51.8 145.2 52.25 Q 144.4 52.7 143.6 53.2 Q 139.5 55.5 136.2 56.2 Z M 99 57.9 Q 96.4 57.9 96.4 55.4 Q 96.4 54 97.1 52.7 Q 97.8 51.4 99.05 49.35 Q 100.3 47.3 102 44.5 Q 103.7 41.7 106.05 38.1 Q 108.4 34.5 111.3 30.2 Q 114.2 25.8 116.65 22.3 Q 119.1 18.8 121 16 Q 123 13.2 124.45 11.25 Q 125.9 9.3 126.9 8.1 Q 127.5 7.4 131 6 Q 134.5 4.5 135.6 4.5 Q 136.8 4.5 136.8 5.3 Q 136.8 6.2 134.9 6.5 Q 132.1 6.9 128.6 10.9 Q 125.2 14.9 117.2 27.1 Q 115.2 30.3 115.2 31.2 Q 115.2 31.3 115.4 31.9 Q 117.7 30.3 121.2 29.05 Q 124.7 27.8 129.6 27 Q 130 26.9 130.7 26.9 Q 132.8 26.9 132.8 29.1 Q 132.8 32.3 128.3 38.3 Q 126 41.4 123.3 44.05 Q 120.6 46.7 117.4 49 Q 105.2 57.9 99 57.9 Z M 52.6 31.6 L 53.2 29.7 Q 54 27.1 56.7 26.3 Q 57 26.2 57.25 26.15 Q 57.5 26.1 57.7 26.1 Q 60.1 26.1 60.1 27.6 Q 60.1 28.1 59.5 28.7 Q 58.6 29.6 58.5 29.8 Q 58.4 30 57.9 30.8 Q 57.9 32 58 32.1 Q 58.3 32.8 60.1 32.8 L 60.9 32.8 Q 61.4 32.8 61.7 32.7 L 62.3 32.7 Q 63.1 32.7 63.1 33.1 Q 63.1 34.3 60.8 34.5 Q 59.7 34.6 58.15 34.7 Q 56.6 34.8 54.7 35 Q 48.1 42.4 36.2 51.5 Q 35.1 52.3 33.65 53.2 Q 32.2 54.1 30.5 55 Q 26.7 57 25.2 57 Q 23.4 57 22.9 56.2 L 22.15 55.15 Q 21.9 54.8 21.8 54.7 Q 21.6 54.5 21.6 54.2 Q 21.6 53.5 22.7 51 Q 26.1 44.1 31.7 35.6 Q 31.9 35.3 31.5 34.9 Q 31.1 34.4 31.2 34.3 Q 31.6 33.9 32.05 33.5 Q 32.5 33.1 33 32.7 Q 33.5 32.3 34.05 31.8 Q 34.6 31.3 35.1 30.8 Q 35.6 30.2 36.1 30.2 Q 36.9 30.2 37.55 30.95 Q 38.2 31.7 38.2 32.6 Q 38.2 33.1 37.9 33.6 Q 33.4 40 33.3 40 Q 31.9 42.3 30.55 44.6 Q 29.2 46.9 28.1 49.3 Q 27.4 50.6 27.4 52.1 Q 27.4 53.8 28.8 53.6 Q 30.5 53.3 39.4 45.9 Q 41.7 44 43.3 42.55 Q 44.9 41.1 46 40.1 Q 47.7 38.4 49.35 36.45 Q 51 34.5 52.4 32.3 Q 52.5 32.1 52.5 31.95 Q 52.5 31.8 52.6 31.6 Z M 49.9 89.7 Q 60.6 89.7 68.6 81.7 Q 73.7 76.6 78.9 66 Q 81.9 59.8 84.9 48.3 Q 77.7 51.7 67.2 57.6 Q 59.1 62 51.1 68.4 Q 43.5 74.2 41.8 77 Q 40.1 79.9 40.1 82.1 Q 40.1 85.5 43 87.6 Q 45.9 89.7 49.9 89.7 Z M 175.4 28.3 L 186 28.2 Q 187.7 28.2 187.7 29 Q 187.7 29.8 186 30 Q 183.9 30.3 182.2 30.3 Q 182.3 30.7 182.35 31.05 Q 182.4 31.4 182.4 31.6 Q 182.4 34.8 178.6 39.8 Q 175.5 43.9 171.6 46.9 Q 162.8 53.6 155.8 55.5 Q 153.9 56.1 152.4 56.1 Q 148.8 56.1 148.8 52.3 Q 148.8 46.4 154.5 39.8 Q 155.6 38.4 157.15 36.45 Q 158.7 34.5 160.7 32.2 Q 160.9 32.2 158.9 31.5 Q 157.6 31.1 157.6 30.1 Q 157.6 28.9 159.3 28.9 Q 160.9 28.9 164.6 28 Q 165.2 27.6 165.85 27.2 Q 166.5 26.8 167.2 26.4 Q 168.3 25.7 169.4 25.7 Q 170 25.7 170.65 25.95 Q 171.3 26.2 172.1 26.6 Q 173.2 27.2 174.05 27.65 Q 174.9 28.1 175.4 28.3 Z M 208.1 28.3 L 218.7 28.2 Q 220.4 28.2 220.4 29 Q 220.4 29.8 218.7 30 Q 216.6 30.3 214.9 30.3 Q 215 30.7 215.05 31.05 Q 215.1 31.4 215.1 31.6 Q 215.1 34.8 211.3 39.8 Q 208.2 43.9 204.3 46.9 Q 195.5 53.6 188.5 55.5 Q 186.6 56.1 185.1 56.1 Q 181.5 56.1 181.5 52.3 Q 181.5 46.4 187.2 39.8 Q 188.3 38.4 189.85 36.45 Q 191.4 34.5 193.4 32.2 Q 193.6 32.2 191.6 31.5 Q 190.3 31.1 190.3 30.1 Q 190.3 28.9 192 28.9 Q 193.6 28.9 197.3 28 Q 197.9 27.6 198.55 27.2 Q 199.2 26.8 199.9 26.4 Q 201 25.7 202.1 25.7 Q 202.7 25.7 203.35 25.95 Q 204 26.2 204.8 26.6 Q 205.9 27.2 206.75 27.65 Q 207.6 28.1 208.1 28.3 Z M 12 35.4 L 12.3 33.7 Q 12.5 32.8 16.2 31.2 Q 18.9 29.9 20.4 29.9 Q 21.2 29.9 21 30.5 Q 20.3 32.9 17.8 36.3 L 12.9 43 Q 12 44.3 10.55 46.05 Q 9.1 47.8 7.2 50.3 Q 7.4 50.2 8.05 49.95 Q 8.7 49.7 9.8 49.3 Q 10.9 48.9 12.5 48.35 Q 14.1 47.8 16.3 47.1 Q 17.7 46.6 19.8 45.95 Q 21.9 45.3 24.8 44.6 Q 25.4 44.6 25.4 45.2 L 25.4 45.4 Q 25.4 45.8 24.8 46 Q 10.9 49.7 3.4 55.3 Q 2.3 56.1 1 56.1 Q 0 56.1 0 55.5 Q 0 55.2 0.3 54.8 Q 1.1 53.5 2.15 52 Q 3.2 50.5 4.3 48.9 Q 5.4 47.2 6.75 45.35 Q 8.1 43.5 9.5 41.4 Q 11.3 38.9 11.8 37.1 Q 11.9 36.7 11.9 36.25 Q 11.9 35.8 12 35.4 Z M 177.8 30.8 L 173.3 30.8 Q 171.1 30.8 169.55 31.15 Q 168 31.5 166.9 32 Q 164 34.2 158.3 40.8 Q 156.3 43.2 154.4 46.3 Q 151.9 50.4 151.9 51.8 L 151.9 52 Q 151.9 53.7 153.4 53.7 Q 153.6 53.7 153.85 53.65 Q 154.1 53.6 154.5 53.5 Q 161.1 51.6 169.4 45.3 Q 170.9 44.2 172.35 42.7 Q 173.8 41.2 175.2 39.5 Q 178.5 35.3 178.5 32.7 Q 178.5 31.5 177.8 30.8 Z M 210.5 30.8 L 206 30.8 Q 203.8 30.8 202.25 31.15 Q 200.7 31.5 199.6 32 Q 196.7 34.2 191 40.8 Q 189 43.2 187.1 46.3 Q 184.6 50.4 184.6 51.8 L 184.6 52 Q 184.6 53.7 186.1 53.7 Q 186.3 53.7 186.55 53.65 Q 186.8 53.6 187.2 53.5 Q 193.8 51.6 202.1 45.3 Q 203.6 44.2 205.05 42.7 Q 206.5 41.2 207.9 39.5 Q 211.2 35.3 211.2 32.7 Q 211.2 31.5 210.5 30.8 Z M 103.5 52.2 Q 107.2 52.2 110.75 50.6 Q 114.3 49 117.7 46.1 Q 124.4 40.6 126.2 33.3 Q 126.3 33 126.3 32.4 Q 126.3 30.3 124.7 30.5 Q 122.1 30.9 119.2 32.2 Q 116.3 33.5 113.75 35.35 Q 111.2 37.2 109.6 39.4 Q 108 41.6 106.15 44.35 Q 104.3 47.1 102.3 50.4 Q 102.1 50.7 102.1 51.1 Q 102.1 52.2 103.5 52.2 Z M 22 17.2 Q 21.5 17.2 21 16.35 Q 20.5 15.5 20.5 15 Q 20.5 14.2 21.4 13.45 Q 22.3 12.7 23.45 12.2 Q 24.6 11.7 25.2 11.7 Q 25.8 11.7 25.8 12 Q 25.8 12.5 25.55 13.05 Q 25.3 13.6 24.8 14.4 Q 24.3 15 23.95 16.1 Q 23.6 17.2 22 17.2 Z" vector-effect="non-scaling-stroke"/></g></svg>